<svg width="26" height="26" viewBox="0 0 26 26" fill="none" xmlns="http://www.w3.org/2000/svg">
<path d="M5.25 1.5V16.5M5.25 16.5C3.17893 16.5 1.5 18.1789 1.5 20.25C1.5 22.3211 3.17893 24 5.25 24C7.32107 24 9 22.3211 9 20.25M5.25 16.5C7.32107 16.5 9 18.1789 9 20.25M20.25 9C22.3211 9 24 7.32107 24 5.25C24 3.17893 22.3211 1.5 20.25 1.5C18.1789 1.5 16.5 3.17893 16.5 5.25C16.5 7.32107 18.1789 9 20.25 9ZM20.25 9C20.25 11.9837 19.0647 14.8452 16.955 16.955C14.8452 19.0647 11.9837 20.25 9 20.25" stroke="#1E1E1E" stroke-width="3" stroke-linecap="round" stroke-linejoin="round"/>
</svg>
